<?xml version="1.0" encoding="utf-8"?>
<svg xmlns="http://www.w3.org/2000/svg" viewBox="24.7941 53.459 294.4129 185.4495" width="294.413pt" height="185.45pt" preserveAspectRatio="none"><g transform="matrix(0.10000000149011612, 0, 0, -0.10000000149011612, 0, 291)" fill="#000000" stroke="none" id="object-0"><path d="M1481 2369 c-236 -26 -490 -98 -669 -188 -293 -147 -493 -365 -548 -596 -68 -289 82 -576 411 -791 186 -121 390 -195 680 -249 121 -23 490 -32 622 -16 420 52 760 198 989 426 155 154 225 304 226 485 2 154 -39 271 -144 413 -180 243 -555 435 -986 503 -117 18 -464 26 -581 13z m434 -30 c66 -5 174 -21 241 -34 115 -23 301 -78 316 -93 4 -4 -30 -45 -77 -92 l-84 -83 -61 56 c-126 117 -274 180 -467 201 -37 3 -43 1 -43 -15 0 -16 7 -19 43 -19 68 0 194 -36 282 -80 83 -42 202 -130 212 -157 4 -10 -80 -101 -273 -294 l-278 -278 55 -58 c214 -230 364 -388 422 -449 l68 -71 -49 -44 c-105 -94 -236 -154 -384 -178 -66 -10 -98 -19 -98 -28 0 -19 71 -16 169 7 106 26 225 85 312 155 37 30 70 55 73 55 6 0 139 -139 149 -155 16 -29 -282 -103 -498 -125 -130 -14 -219 -10 -221 8 -1 6 -2 19 -3 27 -1 12 -17 15 -80 15 -148 0 -450 52 -573 99 -22 8 -30 5 -54 -20 -15 -16 -32 -29 -36 -29 -5 0 3 12 17 27 14 15 25 31 25 34 0 3 -21 14 -47 24 -27 9 -90 39 -140 66 -405 213 -575 536 -454 860 64 169 250 348 482 463 l106 52 -16 25 -15 24 24 -21 25 -22 102 34 c171 56 393 94 550 94 67 0 83 3 83 15 0 18 28 19 195 4z m710 -191 c272 -137 479 -362 523 -570 l10 -48 -312 0 -312 0 -18 93 c-20 106 -76 241 -131 319 l-38 52 24 43 c13 24 46 73 72 108 l48 64 37 -16 c20 -8 64 -29 97 -45z m-254 -245 c60 -96 103 -211 124 -335 l6 -38 -146 0 -147 0 7 53 c15 120 94 367 116 367 5 0 23 -21 40 -47z m114 -615 c-17 -100 -74 -232 -135 -317 -20 -28 -35 -40 -41 -34 -26 26 -98 296 -99 366 l0 27 141 0 141 0 -7 -42z m659 15 c-12 -60 -95 -211 -153 -279 -65 -77 -178 -168 -294 -236 -72 -42 -213 -108 -232 -108 -12 0 -80 101 -114 167 l-21 43 36 47 c53 68 119 209 139 295 9 40 18 79 21 86 2 9 74 12 314 12 l310 0 -6 -27z" style="paint-order: stroke; fill: rgb(5, 33, 174);"/><path d="M1425 2264 c-49 -7 -121 -20 -160 -29 -67 -15 -235 -64 -244 -72 -3 -2 24 -32 59 -68 l64 -64 40 37 c96 88 167 132 326 200 31 13 25 13 -85 -4z" style="paint-order: stroke; fill: rgb(5, 33, 174);"/><path d="M1620 2250 c-151 -26 -300 -102 -399 -204 l-45 -45 85 -83 c47 -46 169 -166 272 -268 l187 -184 0 136 0 136 -40 7 c-91 15 -180 111 -194 209 -18 116 78 244 202 271 40 8 44 36 5 34 -16 -1 -48 -5 -73 -9z" style="paint-order: stroke; fill: rgb(5, 33, 174);"/><path d="M1740 1985 c0 -277 -6 -260 81 -230 59 21 104 58 134 109 87 148 -4 327 -182 360 l-33 6 0 -245z" style="paint-order: stroke; fill: rgb(5, 33, 174);"/><path d="M920 2121 c-278 -121 -492 -344 -533 -558 l-6 -33 278 0 278 0 7 57 c10 87 64 235 116 320 l47 77 -29 49 c-35 59 -78 117 -87 117 -3 -1 -35 -13 -71 -29z" style="paint-order: stroke; fill: rgb(5, 33, 174);"/><path d="M1093 1888 c-58 -97 -113 -256 -113 -330 l0 -28 129 0 130 0 -5 38 c-16 114 -66 294 -97 350 -12 21 -14 21 -44 -30z" style="paint-order: stroke; fill: rgb(5, 33, 174);"/><path d="M1644 1358 c-38 -40 -112 -118 -165 -173 -182 -191 -279 -297 -279 -306 0 -16 136 -118 205 -153 80 -40 207 -76 272 -76 l43 0 0 390 c0 215 -2 390 -4 390 -2 0 -35 -33 -72 -72z" style="paint-order: stroke; fill: rgb(5, 33, 174);"/><path d="M400 1318 c0 -26 61 -141 104 -196 84 -109 207 -207 351 -280 70 -35 178 -82 190 -82 6 0 75 126 75 137 0 6 -20 39 -43 75 -53 78 -102 193 -123 288 l-16 70 -269 0 c-209 0 -269 -3 -269 -12z" style="paint-order: stroke; fill: rgb(5, 33, 174);"/><path d="M980 1322 c0 -5 9 -43 19 -84 24 -92 87 -224 138 -288 14 -17 65 145 88 274 8 49 15 93 15 97 0 5 -58 9 -130 9 -71 0 -130 -4 -130 -8z" style="paint-order: stroke; fill: rgb(5, 33, 174);"/><path d="M1116 801 c-26 -27 -44 -51 -38 -55 18 -11 236 -64 292 -71 l55 -6 -71 40 c-40 22 -97 63 -127 91 -30 27 -57 50 -59 50 -2 0 -25 -22 -52 -49z" style="paint-order: stroke; fill: rgb(5, 33, 174);"/></g></svg>